<svg width="36" height="36" viewBox="0 0 36 36" fill="none" xmlns="http://www.w3.org/2000/svg">
<circle cx="18" cy="18" r="18" fill="#3B8686"/>
<path fill-rule="evenodd" clip-rule="evenodd" d="M14.6957 10.1024C13.3934 10.1637 12.2647 10.4957 11.3532 11.4423C10.4386 12.3938 10.1241 13.5757 10.0652 14.9197C10.0286 15.7586 9.81447 22.0963 10.4354 23.7583C10.8541 24.8796 11.6788 25.7417 12.7637 26.1798C13.27 26.3852 13.848 26.5242 14.6957 26.5648C21.7844 26.8993 24.4121 26.7172 25.5201 23.7583C25.7168 23.2316 25.8521 22.6294 25.8895 21.7475C26.2135 14.3357 25.837 12.7292 24.6015 11.4423C23.6216 10.4229 22.469 9.72891 14.6957 10.1024ZM14.761 25.0742C13.9849 25.0377 13.5638 24.9029 13.2828 24.7894C12.5759 24.5029 12.0449 23.9514 11.7719 23.2185C11.2991 21.9556 11.4559 15.9575 11.4981 14.9869C11.5395 14.0362 11.7241 13.1674 12.3673 12.4966C13.1634 11.6685 14.1918 11.2626 21.1945 11.5922C22.1083 11.6353 22.9434 11.8275 23.5882 12.4966C24.3842 13.3247 24.779 14.4056 24.4574 21.6807C24.4224 22.4881 24.2927 22.9262 24.1836 23.2185C23.4632 25.1439 21.8059 25.4112 14.761 25.0742ZM21.2717 13.9127C21.2717 14.4609 21.6992 14.9067 22.227 14.9067C22.7547 14.9067 23.183 14.4609 23.183 13.9127C23.183 13.3644 22.7547 12.919 22.227 12.919C21.6992 12.919 21.2717 13.3644 21.2717 13.9127ZM13.8901 18.3332C13.8901 20.6817 15.7202 22.5859 17.9778 22.5859C20.2353 22.5859 22.0654 20.6817 22.0654 18.3332C22.0654 15.9846 20.2353 14.0817 17.9778 14.0817C15.7202 14.0817 13.8901 15.9846 13.8901 18.3332ZM15.3246 18.3332C15.3246 16.8094 16.5123 15.5732 17.9778 15.5732C19.4432 15.5732 20.6309 16.8094 20.6309 18.3332C20.6309 19.8578 19.4432 21.0944 17.9778 21.0944C16.5123 21.0944 15.3246 19.8578 15.3246 18.3332Z" fill="white"/>
</svg>
