<svg width="36" height="36" viewBox="0 0 36 36" fill="none" xmlns="http://www.w3.org/2000/svg">
<circle cx="18" cy="18" r="18" fill="#3B8686"/>
<path fill-rule="evenodd" clip-rule="evenodd" d="M14.7175 24.5147C20.3778 24.5147 23.4738 19.6992 23.4738 15.5238C23.4738 15.3868 23.4737 15.2507 23.4647 15.1152C24.067 14.6685 24.5868 14.114 25 13.4794C24.439 13.7351 23.8427 13.9027 23.233 13.9767C23.875 13.5816 24.3558 12.961 24.586 12.2286C23.9815 12.5967 23.3207 12.8565 22.6315 12.9959C21.466 11.7237 19.5168 11.6621 18.277 12.8588C17.4783 13.6304 17.1385 14.7809 17.3868 15.8783C14.9125 15.7504 12.607 14.5507 11.044 12.5769C10.2273 14.0208 10.645 15.8673 11.9973 16.7945C11.5075 16.7799 11.0283 16.6445 10.6 16.3996V16.4397C10.6008 17.9437 11.6335 19.2387 13.069 19.5367C12.616 19.6638 12.1405 19.6822 11.68 19.5905C12.0827 20.8781 13.2385 21.76 14.5547 21.7855C13.465 22.6649 12.1188 23.1424 10.7328 23.1409C10.4883 23.1401 10.2437 23.1255 10 23.0955C11.4078 24.0226 13.045 24.5147 14.7175 24.5124" fill="white"/>
</svg>
