<svg width="36" height="36" viewBox="0 0 36 36" fill="none" xmlns="http://www.w3.org/2000/svg">
<circle cx="18" cy="18" r="18" fill="#3B8686"/>
<path fill-rule="evenodd" clip-rule="evenodd" d="M15.9884 20.9974V15.1448C17.9806 16.1225 19.5236 17.0669 21.3485 18.0851C19.8433 18.9556 17.9806 19.9324 15.9884 20.9974ZM27.091 12.2341C26.7474 11.7619 26.1617 11.3943 25.5381 11.2726C23.7053 10.9096 12.271 10.9086 10.4392 11.2726C9.93911 11.3704 9.49384 11.6067 9.11133 11.9738C7.49964 13.5339 8.00467 21.9001 8.39315 23.2553C8.55651 23.8419 8.76769 24.265 9.03365 24.5426C9.37631 24.9098 9.84547 25.1626 10.3844 25.2759C11.8935 25.6015 19.668 25.7835 25.5062 25.3248C26.0441 25.2271 26.5202 24.9661 26.8958 24.5834C28.3859 23.0295 28.2843 14.1935 27.091 12.2341Z" fill="white"/>
</svg>
